<?xml version="1.0" standalone="no"?>
<!DOCTYPE svg PUBLIC "-//W3C//DTD SVG 20010904//EN"
 "http://www.w3.org/TR/2001/REC-SVG-20010904/DTD/svg10.dtd">
<svg version="1.0" xmlns="http://www.w3.org/2000/svg"
 width="700.000000pt" height="700.000000pt" viewBox="0 0 700.000000 700.000000"
 preserveAspectRatio="xMidYMid meet">
<metadata>
Created by potrace 1.14, written by Peter Selinger 2001-2017
</metadata>
<g transform="translate(0.000000,700.000000) scale(0.100000,-0.100000)"
fill="#000000" stroke="none">
<path d="M632 6925 c-295 -70 -472 -357 -397 -645 36 -141 148 -277 277 -339
l63 -30 -1 -293 c-1 -161 -2 -296 -3 -300 0 -5 -75 -8 -165 -8 -150 0 -165 -2
-190 -21 -33 -26 -36 -79 -6 -109 24 -24 13 -23 190 -26 80 -1 152 -2 160 -3
13 -1 15 -128 14 -1093 -1 -601 -2 -1096 -3 -1100 0 -5 -75 -8 -165 -8 -150 0
-165 -2 -190 -21 -33 -26 -36 -79 -6 -109 25 -25 7 -22 190 -26 85 -1 160 -3
165 -3 7 -1 10 -441 10 -1309 -1 -719 2 -1322 6 -1340 18 -86 94 -140 183
-130 57 7 99 37 125 91 21 43 21 46 21 1365 0 727 3 1322 8 1323 56 6 435 2
440 -5 3 -5 6 -118 6 -251 l2 -241 27 -46 c32 -55 77 -92 133 -111 48 -16 97
-15 244 8 14 2 50 7 80 10 30 3 87 10 125 16 39 5 88 12 109 14 21 3 55 7 75
9 20 3 74 10 121 16 47 6 99 12 115 15 17 2 68 9 115 15 47 6 99 12 115 15 17
2 53 7 80 10 28 4 61 8 74 11 14 2 51 6 84 9 32 4 66 8 76 10 9 2 44 6 76 10
33 4 67 9 75 10 8 2 44 6 80 10 36 4 74 9 85 11 11 2 45 6 75 9 30 3 66 8 80
10 14 3 48 7 75 10 28 3 62 8 76 10 39 7 88 13 160 20 35 3 71 8 79 10 8 2 40
7 70 10 30 3 66 8 80 10 14 2 43 6 65 9 22 3 58 8 81 11 23 3 60 8 84 10 38 4
69 8 150 20 14 2 50 6 80 10 30 4 66 8 80 10 14 2 66 9 115 15 50 6 101 13
115 15 14 2 47 7 74 9 26 3 65 8 85 11 34 4 375 49 471 61 25 3 56 7 69 9 14
3 51 7 84 10 32 4 66 8 76 10 10 2 42 6 72 10 30 3 99 12 154 20 55 8 123 17
150 20 28 3 67 7 88 10 20 3 54 7 75 10 20 2 109 14 197 25 88 12 180 23 205
26 136 13 223 73 251 171 12 44 14 223 13 1140 -1 1230 5 1137 -82 1213 -45
40 -80 54 -162 65 -25 3 -61 8 -80 10 -19 3 -55 7 -80 10 -25 3 -76 9 -115 15
-38 6 -86 12 -105 14 -104 13 -138 17 -170 22 -19 3 -51 7 -70 9 -49 6 -120
15 -150 20 -14 2 -68 9 -120 15 -119 14 -158 19 -190 25 -14 2 -50 7 -81 10
-31 3 -65 7 -75 9 -11 2 -46 7 -79 10 -33 4 -73 9 -90 12 -91 12 -346 45 -380
48 -22 3 -53 7 -70 9 -16 3 -57 9 -90 12 -33 4 -69 9 -80 10 -76 11 -224 30
-305 40 -19 2 -54 7 -76 10 -23 3 -59 8 -80 10 -22 3 -56 7 -76 10 -21 3 -55
7 -75 10 -21 3 -54 7 -73 9 -62 8 -284 36 -315 40 -16 3 -57 8 -90 12 -33 3
-67 8 -76 9 -9 2 -38 6 -65 9 -27 4 -65 9 -84 11 -19 3 -62 7 -95 10 -33 4
-66 8 -73 10 -7 3 -34 7 -60 10 -54 7 -189 23 -247 31 -22 2 -51 7 -65 9 -14
2 -50 7 -80 10 -30 4 -66 8 -80 10 -14 2 -99 13 -190 25 -91 11 -178 22 -195
25 -16 3 -70 9 -120 15 -49 6 -101 12 -115 15 -14 2 -49 7 -79 10 -30 4 -61 8
-70 10 -136 26 -231 10 -292 -50 -71 -68 -73 -81 -74 -355 l-1 -245 -227 -3
-227 -2 0 304 0 304 26 6 c41 11 132 73 184 126 266 273 150 739 -215 860 -77
26 -200 32 -273 15z m2108 -1540 c47 -5 125 -12 200 -20 25 -2 68 -6 95 -9 28
-3 77 -8 110 -11 33 -2 80 -7 105 -10 25 -2 72 -7 105 -10 107 -9 136 -16 143
-35 9 -26 9 -2502 -1 -2517 -7 -11 -39 -18 -129 -28 -109 -12 -145 -16 -193
-21 -27 -3 -66 -7 -85 -9 -19 -2 -60 -6 -90 -9 -57 -7 -105 -12 -205 -22 -33
-3 -90 -9 -128 -14 -79 -10 -104 -5 -112 21 -4 10 -6 618 -6 1351 -1 1247 1
1333 17 1345 16 12 51 11 174 -2z m1866 -230 c43 -3 97 -8 119 -10 22 -2 74
-7 115 -10 41 -3 100 -8 130 -11 30 -2 87 -6 125 -9 64 -4 144 -11 250 -21 22
-2 45 -11 53 -21 15 -22 18 -2043 2 -2073 -10 -20 -40 -26 -160 -36 -41 -3
-91 -7 -110 -9 -19 -2 -69 -6 -110 -10 -41 -4 -88 -9 -105 -11 -16 -1 -69 -5
-116 -9 -47 -3 -99 -8 -115 -10 -17 -2 -69 -6 -116 -10 -71 -5 -88 -4 -102 10
-15 15 -16 108 -16 1114 0 862 3 1101 13 1113 11 15 45 28 58 22 3 -2 41 -6
85 -9z m-3250 -7 c7 -5 12 -2140 5 -2190 -1 -5 -102 -8 -226 -8 l-225 0 0
1098 c0 604 2 1101 4 1103 7 6 431 3 442 -3z"/>
</g>
</svg>
