<?xml version="1.0" encoding="UTF-8" standalone="no"?>
<!DOCTYPE svg PUBLIC "-//W3C//DTD SVG 1.1//EN" "http://www.w3.org/Graphics/SVG/1.1/DTD/svg11.dtd">
<!-- Gegenereerd door Microsoft Visio, SVG Export logo.svg Page-1 -->
<svg xmlns="http://www.w3.org/2000/svg" xmlns:xlink="http://www.w3.org/1999/xlink" xmlns:ev="http://www.w3.org/2001/xml-events"
		xmlns:v="http://schemas.microsoft.com/visio/2003/SVGExtensions/" width="7.87402in" height="7.87402in"
		viewBox="0 0 566.929 566.929" xml:space="preserve" color-interpolation-filters="sRGB" class="st5">
	<v:documentProperties v:langID="1043" v:metric="true" v:viewMarkup="false">
		<v:userDefs>
			<v:ud v:nameU="msvNoAutoConnect" v:val="VT0(0):26"/>
		</v:userDefs>
	</v:documentProperties>

	<style type="text/css">
	<![CDATA[
		.st1 {fill:#000000;stroke:none;stroke-linecap:round;stroke-linejoin:round;stroke-width:0.75}
		.st2 {stroke:#000000;stroke-linecap:round;stroke-linejoin:round;stroke-width:40}
		.st3 {stroke:#000000;stroke-linecap:round;stroke-linejoin:round;stroke-width:30}
		.st4 {fill:#000000;stroke:#000000;stroke-linecap:round;stroke-linejoin:round;stroke-width:15}
		.st5 {fill:none;fill-rule:evenodd;font-size:12px;overflow:visible;stroke-linecap:square;stroke-miterlimit:3}
	]]>
	</style>

	<g v:mID="0" v:index="1" v:groupContext="foregroundPage">
		<title>Pagina-1</title>
		<v:pageProperties v:drawingScale="0.0393701" v:pageScale="0.0393701" v:drawingUnits="24" v:shadowOffsetX="8.50394"
				v:shadowOffsetY="-8.50394"/>
		<v:layer v:name="Verbindingslijn" v:index="0"/>
		<g id="shape11-1" v:mID="11" v:groupContext="shape" transform="translate(7.08661,-464.273)">
			<title>Blad.11</title>
			<ellipse cx="51.3281" cy="515.601" rx="51.3281" ry="51.3281" class="st1"/>
		</g>
		<g id="shape12-3" v:mID="12" v:groupContext="shape" transform="translate(627.022,88.5819) rotate(90)">
			<title>Blad.12</title>
			<path d="M0 566.93 L457.09 566.93" class="st2"/>
		</g>
		<g id="shape13-6" v:mID="13" v:groupContext="shape" transform="translate(28.3465,-423.738)">
			<title>Blad.13</title>
			<path d="M0 566.93 L89.57 566.93" class="st3"/>
		</g>
		<g id="shape17-9" v:mID="17" v:groupContext="shape" transform="translate(28.3465,-232.606)">
			<title>Blad.17</title>
			<path d="M0 566.93 L89.57 566.93" class="st3"/>
		</g>
		<g id="shape62-12" v:mID="62" v:groupContext="shape" transform="translate(117.915,-177.996)">
			<title>Blad.62</title>
			<path d="M235.14 413.32 L235.14 330.59 A11.3386 11.3386 0 0 1 247.4 319.29 L317.23 324.95 A11.3386 11.3386 0 0 1 327.66
						 336.25 L327.66 413.32 L327.66 500.06 A11.3386 11.3386 0 0 1 317.33 511.36 L247.49 517.63 A11.3386 11.3386
						 0 0 1 235.14 506.34 L235.14 413.32 ZM80.95 413.32 L80.95 311.52 A11.3386 11.3386 0 0 1 93.39 300.23 L163.23
						 307.04 A11.3386 11.3386 0 0 1 173.46 318.33 L173.46 413.32 L173.46 517.98 A11.3386 11.3386 0 0 1 163.32
						 529.26 L93.49 536.69 A11.3386 11.3386 0 0 1 80.95 525.41 L80.95 413.32 ZM424.02 502.35 L424.02 331.16 A11.3386
						 11.3386 -180 0 0 414.13 319.91 L12.79 268.23 A11.3386 11.3386 -180 0 0 -0 279.47 L0 554.04 A11.3386 11.3386
						 -180 0 0 12.79 565.28 L414.13 513.59 A11.3386 11.3386 -180 0 0 424.02 502.35 Z" class="st4"/>
		</g>
	</g>
</svg>
